<svg xmlns="http://www.w3.org/2000/svg" width="127" height="69" viewBox="0 0 127 69" fill="none"><path d="M58.0344 46.1353C58.4709 45.8751 58.9947 45.7595 59.5186 45.7595C59.926 45.7595 60.3334 45.8462 60.6826 46.0197C61.0609 46.1932 61.381 46.4534 61.6429 46.7425L62.6033 45.7884C62.225 45.3258 61.7594 44.9788 61.2355 44.7475C60.5953 44.4873 59.926 44.3716 59.2275 44.4005C58.5291 44.4294 57.8598 44.6318 57.2778 44.9499C56.6375 45.3258 56.1137 45.8462 55.7354 46.5112C55.3571 47.2051 55.1825 47.9569 55.1825 48.7375C55.1825 49.5182 55.3571 50.2699 55.7354 50.9639C56.0846 51.6 56.6084 52.1493 57.2487 52.5252C57.918 52.9011 58.6746 53.1035 59.4313 53.0745C60.0424 53.0745 60.6535 52.9589 61.2355 52.7276C61.7594 52.4963 62.2541 52.1204 62.6033 51.6867L61.6429 50.7326C61.381 51.0506 61.0609 51.3108 60.6826 51.4843C60.3043 51.6578 59.8969 51.7445 59.4895 51.7445C58.9656 51.7445 58.4709 51.6289 58.0053 51.3687C57.5688 51.1084 57.2196 50.7615 56.9867 50.3278C56.7539 49.8652 56.6084 49.3158 56.6084 48.7954C56.6084 48.2749 56.7248 47.7545 56.9867 47.263C57.2487 46.7714 57.5979 46.3955 58.0344 46.1353ZM56.5502 36.3626H60.6244V39.9768H62.0795V31.5341H60.6244V35.0037H56.5502V31.5341H55.0952V39.9768H56.5502V36.3626ZM63.8837 39.9768H65.3388V31.5341H63.8837V39.9768ZM71.5665 31.9099C71.0135 31.6497 70.4024 31.5341 69.7913 31.563H67.1722V39.9768H68.6272V37.5481H69.7913C70.4024 37.5481 71.0135 37.4324 71.5665 37.2011C72.0612 36.9698 72.4686 36.6228 72.7305 36.1602C72.9924 35.6687 73.1379 35.1193 73.1379 34.57C73.1379 34.0206 72.9924 33.4713 72.7305 32.9797C72.4686 32.4882 72.0612 32.1413 71.5665 31.9099ZM71.1591 35.7843C70.8389 36.0735 70.3442 36.218 69.704 36.218H68.6272V32.8641H69.704C70.3442 32.8641 70.8389 33.0087 71.1591 33.2978C71.4792 33.5869 71.6538 33.9917 71.6538 34.5411C71.6538 35.0904 71.5083 35.4952 71.1591 35.7843ZM85.8843 31.563L81.9556 39.9768H83.6144L84.4874 38.0396H88.8526L89.7256 39.9768H91.4135L87.4848 31.5341H85.8843V31.563ZM85.0403 36.7963L86.67 33.1243L88.2997 36.7963H85.0403ZM70.2569 44.9499C69.5876 44.574 68.831 44.4005 68.0452 44.4005C67.2595 44.4005 66.532 44.6029 65.8335 44.9499C65.1933 45.3258 64.6404 45.8462 64.2912 46.5112C63.9128 47.2051 63.7382 47.9569 63.7382 48.7375C63.7382 49.5182 63.9419 50.2699 64.2912 50.9639C64.6404 51.6 65.1933 52.1493 65.8335 52.5252C66.5029 52.9011 67.2595 53.0745 68.0452 53.0745C68.831 53.0745 69.5585 52.8722 70.2569 52.5252C70.8971 52.1493 71.421 51.6289 71.7993 50.9639C72.1776 50.2699 72.3522 49.5182 72.3522 48.7375C72.3522 47.9569 72.1485 47.2051 71.7993 46.5112C71.421 45.8462 70.8971 45.3258 70.2569 44.9499ZM70.4897 50.241C70.2569 50.6747 69.9077 51.0506 69.5003 51.3108C69.0638 51.5711 68.569 51.6867 68.0743 51.6867C67.5796 51.6867 67.0849 51.5421 66.6484 51.3108C66.2118 51.0506 65.8626 50.7036 65.6589 50.241C65.4261 49.7784 65.2806 49.258 65.2806 48.7086C65.2806 48.1593 65.397 47.6677 65.6589 47.1762C65.8917 46.7425 66.2409 46.3666 66.6484 46.1064C67.0849 45.8462 67.5796 45.7305 68.0743 45.7305C68.569 45.7305 69.0638 45.8751 69.5003 46.1064C69.9368 46.3666 70.286 46.7136 70.4897 47.1762C70.7225 47.6388 70.868 48.1593 70.868 48.7086C70.868 49.258 70.7225 49.7784 70.4897 50.241ZM119.962 44.5162V45.8462H122.61V52.9589H124.094V45.8462H126.742V44.5162H119.962ZM117.605 50.2121L113.21 44.5162H111.988V52.9589H113.472V47.263L117.867 52.9589H119.089V44.5162H117.605V50.2121ZM80.8789 44.5162L78.4053 48.9978L75.8735 44.5162H74.0401V52.9589H75.6115V47.1184L78.3762 51.9758L81.199 47.0316V52.93H82.7705V44.4873H80.8789V44.5162ZM88.9108 44.8631C88.3579 44.6029 87.7177 44.4873 87.1065 44.5162H84.4583V52.9589H85.9425V50.5302H87.1065C87.7177 50.5302 88.3579 50.4145 88.9108 50.1832C89.4055 49.9519 89.813 49.6049 90.104 49.1423C90.3659 48.6508 90.5114 48.1014 90.5114 47.5521C90.5114 47.0027 90.3659 46.4534 90.104 45.9619C89.813 45.4703 89.4055 45.0944 88.9108 44.8631ZM88.5034 48.7664C88.1833 49.0556 87.6886 49.2001 87.0192 49.2001H85.9134V45.8462H87.0192C87.6595 45.8462 88.1542 45.9908 88.5034 46.2799C88.8235 46.569 88.9981 46.9738 88.9981 47.5232C89.0272 48.0436 88.8526 48.4773 88.5034 48.7664ZM79.1619 38.0396L80.0349 39.9768H81.7228L77.7941 31.5341H76.1936L72.294 39.9768H73.9528L74.8258 38.0396H79.1619ZM77.0084 33.1243L78.6381 36.7963H75.3787L77.0084 33.1243ZM93.3633 44.5162H91.8791V52.9589H97.5248V51.6289H93.3633V44.5162ZM98.747 52.93H100.231V44.4873H98.747V52.93ZM39.0895 62.4425C39.1186 64.4664 39.1477 65.941 39.1768 66.6638C39.2059 66.7506 39.2059 66.8662 39.1768 66.953C39.1768 67.0686 39.1768 67.1554 39.1768 67.1554C39.1768 67.5602 39.235 67.9649 39.3514 68.3408C39.4678 67.9649 39.526 67.5602 39.526 67.1554C39.526 67.0108 39.5842 64.9001 39.6715 61.5173C39.6424 61.5462 39.6133 61.5751 39.6133 61.604C39.4096 61.8642 39.235 62.1534 39.0895 62.4425ZM33.0364 20.2289C33.502 19.7374 33.9386 19.1591 34.2587 18.552C34.0259 19.0724 33.1237 21.0385 33.9968 21.212C34.9571 21.3855 36.0339 21.0963 37.9836 18.6387C37.9254 15.4871 37.8672 12.7404 37.8381 10.6586H36.7905C36.7323 10.6586 36.7032 10.6586 36.645 10.6586C36.063 10.6586 35.1026 10.6008 34.4624 9.64663C33.764 8.60575 33.7349 7.53596 33.7057 6.75529C33.6767 5.62767 33.3856 3.57482 31.9597 2.41828C30.9702 1.63762 28.2929 1.03044 25.8193 2.0135C25.0045 2.33154 23.3748 3.17003 21.7742 3.95069C20.3192 4.67353 18.4567 5.56984 17.8747 5.56984C18.835 5.13614 20.1155 4.50005 21.5123 3.71939C23.1129 2.85198 24.8008 1.92676 25.6447 1.57979C27.3326 0.914787 30.5628 0.712395 32.2216 2.04241C33.7931 3.3146 34.1132 5.51201 34.1423 6.69746C34.1714 7.47813 34.2005 8.43227 34.8116 9.38641C35.3645 10.196 36.2376 10.196 36.7614 10.196H36.8778H37.809C37.809 9.93577 37.809 9.70446 37.809 9.44424C36.8778 9.50206 35.5391 9.55989 34.9571 8.31662C34.2587 6.81312 35.0153 2.96764 32.6872 1.34849C30.3591 -0.270661 26.6341 0.134127 23.3166 2.04241C20.0282 3.92178 15.663 6.37942 10.2793 8.51901C4.89552 10.6586 1.54888 11.526 0.908651 11.6127C0.297525 11.7284 1.40337 12.1332 3.70237 12.191C6.00137 12.2488 7.92205 12.0754 7.92205 12.0754L24.8008 4.44222C24.8008 4.44222 10.2501 11.6417 9.0279 12.4223C7.80564 13.203 6.8162 13.4632 6.90351 14.186C6.99081 14.9089 7.92205 14.8221 10.483 14.7643C13.0439 14.7065 13.5968 14.4752 14.4698 14.2149C15.3429 13.9547 24.8008 9.61772 24.8008 9.61772C24.8008 9.61772 14.6735 14.6197 13.2185 15.7763C11.7634 16.9328 13.3349 17.3087 14.3243 17.3376C15.3429 17.3665 18.0493 17.2219 19.5625 16.4702C21.0758 15.7184 25.7902 12.7114 25.7902 12.7114C25.7902 12.7114 21.134 16.0365 20.2319 16.7882C19.5043 17.3954 19.126 17.9159 19.3006 18.552C19.5625 19.3615 20.9594 19.2748 22.8219 18.6098C22.8219 18.6098 24.7426 17.9448 25.4701 17.3087C26.1976 16.6437 28.2347 14.851 28.2347 14.851C28.2347 14.851 25.8193 17.3376 25.2082 18.4074C24.6262 19.4772 24.5098 19.7374 24.8008 20.3446C25.2082 21.212 28.2929 20.3157 29.166 19.3904C29.8062 18.6676 30.4173 17.9159 30.9702 17.1063C30.9702 17.1063 30.039 18.6098 29.8353 19.4772C29.6316 20.3446 29.3988 21.0385 30.2427 21.1252C31.1739 21.2698 32.047 21.2987 33.0364 20.2289ZM38.7985 39.919C38.8858 39.8611 38.9731 39.8033 39.0604 39.7455C39.235 39.6298 39.3805 39.5431 39.4969 39.4274C39.7297 39.2829 39.9625 39.1094 40.1953 38.9648C40.2244 37.3167 40.2826 35.6398 40.3117 33.9917C39.8461 33.7893 39.3514 33.5869 38.8276 33.3845C38.7985 33.3845 38.7694 33.3556 38.7403 33.3556C38.6821 33.3267 38.653 33.3267 38.5948 33.2978C38.2455 33.1821 37.9254 33.0376 37.5471 32.9219C37.1106 32.7484 36.6741 32.6039 36.2376 32.4304C33.3274 33.9628 32.7454 34.6856 32.7454 36.1024C32.7454 38.0974 34.4624 38.9937 37.4307 40.8731C37.8963 40.5261 38.362 40.2081 38.7985 39.919ZM35.219 36.3626C35.219 36.3626 35.0153 35.0904 38.3037 33.6158C38.3911 33.5869 38.4784 33.5291 38.5657 33.5002C38.5948 35.4952 38.6239 37.4902 38.6821 39.4853C37.0524 38.3865 35.219 37.3457 35.219 36.3626ZM40.1953 60.9101C40.0498 61.0836 39.9043 61.257 39.7588 61.4016C40.6027 62.5292 40.5445 63.6279 40.0789 65.0447C40.5154 64.5532 41.3885 63.3099 40.6609 61.6907C40.5154 61.4305 40.3699 61.1703 40.1953 60.9101ZM38.8567 49.0556C39.1768 49.3736 39.5551 49.7495 39.9334 50.1254C40.1662 50.3567 40.399 50.588 40.6609 50.8482C40.6901 50.8771 40.7483 50.906 40.8065 50.9639C42.7853 49.258 44.5896 47.6388 44.5896 45.6149C44.5896 44.0247 43.0473 42.579 41.5049 41.4224C41.3594 41.5092 41.2139 41.5959 41.0684 41.7116C40.7192 41.9429 40.399 42.1453 40.108 42.3477C40.108 42.3477 40.0789 42.3477 40.0789 42.3766C40.0207 42.4344 39.9334 42.4633 39.8752 42.5212C39.4678 42.8103 39.0895 43.0705 38.7403 43.3307C38.7985 45.2679 38.8276 47.2051 38.8567 49.0556ZM40.108 42.6657C42.0287 44.0536 42.7853 44.9499 42.7853 45.9329C42.7853 46.9449 41.7086 48.1304 39.9625 49.8652C39.9916 47.5521 40.0498 45.1523 40.108 42.6657ZM50.73 14.88C50.73 14.88 52.7671 16.6726 53.4946 17.3376C54.2221 18.0026 56.1428 18.6387 56.1428 18.6387C58.0053 19.3037 59.4022 19.3904 59.6641 18.5809C59.8678 17.9448 59.4604 17.3954 58.7328 16.8172C57.8307 16.0654 53.1745 12.7404 53.1745 12.7404C53.1745 12.7404 57.8889 15.7474 59.4021 16.4991C60.9154 17.2509 63.6218 17.3954 64.6404 17.3665C65.6589 17.3376 67.2013 16.9617 65.7462 15.8052C64.2912 14.6486 54.1639 9.64663 54.1639 9.64663C54.1639 9.64663 63.5927 14.0126 64.4949 14.2439C65.3679 14.5041 65.9208 14.7065 68.4817 14.7932C71.0426 14.851 71.9448 14.9378 72.0612 14.2149C72.1776 13.521 71.1591 13.2608 69.9368 12.4512C68.7145 11.6706 54.1639 4.47113 54.1639 4.47113L71.0426 12.1043C71.0426 12.1043 72.9633 12.2778 75.2623 12.2199C77.5613 12.1621 78.6672 11.7573 78.056 11.6417C77.4449 11.526 74.0692 10.6875 68.6855 8.54792C63.3017 6.40833 58.9365 3.97961 55.6481 2.07132C52.3596 0.191953 48.6056 -0.241748 46.2775 1.3774C43.9494 2.99655 44.706 6.81312 44.0076 8.34553C43.4256 9.58881 42.0869 9.53098 41.1557 9.47315C41.1557 9.70446 41.1557 9.96468 41.1266 10.2249H42.0869H42.2033C42.7271 10.2249 43.6002 10.2249 44.1531 9.41533C44.7642 8.4901 44.7933 7.50704 44.8224 6.72638C44.8515 5.54093 45.1716 3.34351 46.7431 2.07132C48.4019 0.741308 51.6321 0.943702 53.32 1.60871C54.1639 1.92676 55.8518 2.85198 57.4524 3.7483C58.8492 4.52896 60.1297 5.16506 61.09 5.59876C60.4789 5.59876 58.6455 4.70244 57.1905 3.97961C55.619 3.17003 53.9893 2.36046 53.1454 2.04241C50.6718 1.05936 47.9945 1.66653 47.005 2.4472C45.55 3.60373 45.288 5.65658 45.2589 6.7842C45.2298 7.56487 45.2007 8.66358 44.5023 9.67554C43.8912 10.6297 42.9309 10.6875 42.3197 10.6875C42.2615 10.6875 42.2324 10.6875 42.1742 10.6875H41.1266C41.0684 12.7693 41.0102 15.4871 40.952 18.5809C42.9308 21.0963 44.0658 21.4144 44.997 21.212C45.8701 21.0385 44.997 19.0724 44.7351 18.552C45.0843 19.1591 45.4918 19.7085 45.9574 20.2289C46.9177 21.2987 47.8199 21.2698 48.6929 21.1542C49.5659 21.0385 49.304 20.3735 49.1003 19.5061C48.8966 18.6387 47.9654 17.1352 47.9654 17.1352C48.5183 17.9159 49.1294 18.6965 49.7696 19.4194C50.6427 20.3446 53.7274 21.2698 54.1348 20.3735C54.3967 19.7952 54.3094 19.5061 53.7274 18.4363C53.1745 17.3665 50.73 14.88 50.73 14.88ZM39.526 6.03246C39.9916 6.03246 40.4572 5.88789 40.8356 5.62767C41.2139 5.36745 41.534 4.99157 41.7086 4.58679C41.8832 4.15309 41.9414 3.69047 41.8541 3.22786C41.7668 2.76524 41.534 2.36046 41.2139 2.0135C40.8938 1.69545 40.4572 1.46414 39.9916 1.3774C39.526 1.29066 39.0604 1.31957 38.6239 1.52197C38.1873 1.69545 37.809 2.0135 37.5762 2.38937C37.3143 2.76524 37.1688 3.22786 37.1688 3.69047C37.1688 4.00852 37.227 4.29765 37.3434 4.58679C37.4598 4.87592 37.6344 5.13614 37.8672 5.33854C38.1 5.56984 38.3328 5.74332 38.6239 5.85898C38.8858 5.97463 39.2059 6.03246 39.526 6.03246ZM47.2669 23.6118C47.2669 23.6118 47.2087 21.9926 44.5605 21.8192C41.8541 21.6457 41.7377 22.8022 41.7959 23.2359C41.9996 23.2359 42.1742 23.2938 42.1742 23.3516C42.1742 23.4094 42.0287 23.4672 41.8541 23.4672C41.9996 23.9009 42.407 24.4214 43.5711 24.9996C44.5314 25.4623 44.997 25.4333 45.55 25.3466C45.55 25.3466 46.1902 25.7225 46.1902 26.3297C46.1902 26.9079 45.1716 28.0355 40.399 30.4064C40.6901 17.6267 40.952 6.40833 40.952 6.40833H41.243C41.3594 6.40833 41.4758 6.3505 41.5631 6.26376C41.6504 6.17702 41.7086 6.06137 41.7086 5.94572V5.80115C41.7086 5.74332 41.7086 5.6855 41.6795 5.62767C41.6504 5.56984 41.6213 5.51202 41.5631 5.4831C41.3012 5.77224 41.0102 6.00355 40.6609 6.17703C40.3117 6.35051 39.9334 6.40833 39.5551 6.40833C39.1768 6.40833 38.7985 6.32159 38.4493 6.17703C38.1 6.03246 37.7799 5.77224 37.5471 5.4831C37.4889 5.54093 37.4598 5.56984 37.4307 5.62767C37.4016 5.6855 37.4016 5.74332 37.4016 5.80115V5.94572C37.4016 6.06137 37.4598 6.17702 37.5471 6.26376C37.6344 6.3505 37.7508 6.40833 37.8672 6.40833H38.1582C38.1582 6.40833 38.3619 17.3087 38.5657 29.8571C38.9731 30.0595 39.3805 30.2619 39.8461 30.4932C39.9043 30.5221 39.9916 30.551 40.0498 30.5799C41.1266 31.1004 42.0287 31.5341 42.7853 31.9389C45.3462 30.9558 47.849 29.8282 48.6056 28.2379C49.9442 25.2888 47.2669 23.6118 47.2669 23.6118ZM43.7166 22.9468C43.4256 22.9468 43.1928 22.8022 43.1928 22.6287C43.1928 22.4553 43.4256 22.3107 43.7166 22.3107C44.0076 22.3107 44.2404 22.4553 44.2404 22.6287C44.2404 22.8022 44.0076 22.9468 43.7166 22.9468ZM39.0895 59.5511C39.3223 59.262 39.526 58.9729 39.7588 58.7127C39.7879 57.0646 39.8461 55.2141 39.8752 53.2191C39.5842 52.93 39.2641 52.6408 38.9149 52.3228C38.7985 52.2361 38.7112 52.1204 38.5948 52.0337C38.4493 51.8891 38.3037 51.7734 38.1582 51.6578C37.3434 52.4095 35.7428 54.0865 35.7428 55.5322C35.7428 57.2381 37.4016 58.9729 38.653 60.2162C38.7694 59.9559 38.9149 59.7535 39.0895 59.5511ZM38.9149 52.6698C38.9731 55.1274 39.0022 57.3826 39.0313 59.3198C38.0709 58.0476 37.0524 56.7465 37.0524 55.8502C37.0524 55.0117 37.5471 54.0576 38.9149 52.6698ZM39.5842 30.8691C33.9095 28.1512 32.7454 26.9079 32.7454 26.3007C32.7454 25.6936 33.3856 25.3177 33.3856 25.3177C33.9386 25.4333 34.4042 25.4333 35.3645 24.9707C36.5286 24.4214 36.936 23.872 37.0815 23.4383C36.9069 23.4383 36.7614 23.3805 36.7614 23.3227C36.7614 23.2648 36.936 23.207 37.1397 23.207V23.1781C37.1688 22.7444 37.0233 21.6168 34.346 21.7903C31.6978 21.9637 31.6396 23.5829 31.6396 23.5829C31.6396 23.5829 28.9622 25.2888 30.3591 28.1801C31.5814 30.7534 37.3143 32.1123 40.6319 33.5869C43.9203 35.0615 43.7166 36.3337 43.7166 36.3337C43.7166 37.4324 41.5049 38.5889 39.7588 39.8033C38.0127 41.0177 34.3169 43.1283 34.3169 45.6149C34.3169 47.899 36.6159 49.6628 38.8567 51.6289C41.1266 53.595 41.8541 54.7804 41.8541 55.8791C41.8541 57.3826 39.3514 59.4066 38.0709 61.922C36.7905 64.4375 39.3223 68.3408 38.5366 66.288C37.7217 64.2351 38.1582 62.7894 39.2059 61.3438C40.4863 59.5801 43.2219 57.8453 43.2219 55.5033C43.2219 53.5372 40.3408 51.2241 40.3408 51.2241C37.7799 48.6797 36.1503 47.234 36.1503 45.9619C36.1503 44.6897 37.3725 43.562 40.8065 41.3357C44.2113 39.1383 46.2193 38.2709 46.2193 36.1313C46.2193 34.2519 45.2589 33.5869 39.5842 30.8691ZM35.219 22.3396C35.51 22.3396 35.7428 22.4842 35.7428 22.6577C35.7428 22.8311 35.51 22.9757 35.219 22.9757C34.928 22.9757 34.6952 22.8311 34.6952 22.6577C34.6952 22.4842 34.928 22.3396 35.219 22.3396ZM105.295 44.5162L101.366 52.9589H103.025L103.898 51.0217H108.263L109.136 52.9589H110.824L106.895 44.5162H105.295ZM104.451 49.7784L106.081 46.1064L107.71 49.7784H104.451Z" fill="white"></path></svg>