<svg xmlns="http://www.w3.org/2000/svg" width="187" height="51" viewBox="0 0 187 51" fill="none"><g clip-path="url(#clip0_751_3976)"><path d="M91.4395 13.3643C94.3464 13.3643 96.672 13.7131 98.1837 14.1782C100.742 15.1084 102.486 17.434 103.184 19.9922V13.3643H112.835V33.7131C112.835 36.9689 114.695 39.527 118.067 39.527C121.672 39.527 123.532 37.0852 123.532 33.7131V13.3643H133.067V18.7131C133.998 16.6201 135.626 15.1084 137.719 14.1782C138.649 13.8294 139.812 13.5968 141.323 13.4805C142.137 13.3643 143.067 13.3643 144.114 13.3643H185.742V21.6201H175.974V46.7364H166.207V21.6201H151.439C151.439 21.6201 148.067 18.7131 144.23 18.9457C142.951 19.0619 141.672 19.7596 141.207 20.6898C140.858 21.3875 140.858 22.2015 141.207 23.0154C141.323 23.1317 141.556 23.3643 141.788 23.5968C145.044 26.6201 149.928 26.0387 153.3 27.5503C155.393 28.5968 156.788 29.8759 157.602 31.2712C159.463 34.6433 159.463 38.5968 157.486 41.8526C154.928 46.0387 150.044 47.3177 145.277 47.3177C143.765 47.3177 142.486 47.2015 141.207 47.0852H140.742C137.835 46.6201 135.626 45.6898 134.346 44.1782C133.3 42.8991 132.253 41.6201 131.672 39.9922C131.091 41.3875 130.277 42.6666 129.23 43.7131C126.323 46.8526 122.951 47.434 118.765 47.434C113.532 47.434 109.463 46.9689 106.091 43.0154C103.998 40.4573 103.184 36.7363 103.184 33.4805V25.8061C102.602 27.8991 101.323 29.7596 99.4627 31.0387C98.6488 31.3875 97.3697 31.9689 95.9743 32.3177C97.0209 32.5503 98.0674 33.1317 98.5325 33.5968C98.765 33.7131 99.4627 34.527 99.9278 35.2247C102.137 38.4805 103.649 43.0154 104.812 46.9689H95.5092C95.5092 46.9689 94.9278 42.7829 93.2999 39.2945C92.0209 36.7363 90.9743 35.1084 89.579 34.2945C89.4627 34.1782 89.3464 34.0619 89.2302 33.9457C88.2999 33.4805 86.4395 33.3643 85.2767 33.3643V46.9689H75.6255V21.6201H66.672V46.7364H57.0209V21.6201H53.0674C52.2534 16.9689 49.3464 13.7131 45.1604 13.4805V13.3643H91.4395ZM132.951 26.6201V33.3643C132.951 34.1782 132.835 34.8759 132.835 35.6898L139.812 35.8061C139.928 37.0852 140.393 38.248 141.207 39.0619C142.253 40.1084 143.765 40.6898 145.393 40.6898C147.253 40.6898 149.695 39.6433 149.695 37.3177C149.695 34.2945 145.742 33.4805 143.765 33.1317C142.951 33.0154 142.137 32.7829 141.207 32.5503C138.067 31.6201 134.579 29.7596 133.067 26.8526L132.951 26.6201ZM89.3464 20.1084H85.1604V26.7364H89.579C91.672 26.6201 93.9976 25.9224 93.9976 23.4805C93.9976 20.9224 91.4395 20.2247 89.579 20.2247C89.4627 20.2247 89.4627 20.1084 89.3464 20.1084Z" fill="white"></path><path d="M31.9053 22.085V23.2478C29.9286 25.8059 28.1844 28.9454 27.1379 32.2012C24.4635 41.0384 27.1379 48.0152 33.1844 48.0152C34.3472 48.0152 35.7425 47.7826 37.0216 47.2012H40.8588C39.9286 47.8989 38.8821 48.5966 37.9518 49.0617C36.2077 49.9919 34.4635 50.3408 32.8356 50.3408C26.0914 50.3408 23.0681 42.4338 26.2077 32.6664C27.4867 28.8291 29.4635 25.1082 31.9053 22.085Z" fill="white"></path><path d="M26.3238 13.364V28.9454C25.6261 30.3408 25.161 31.8524 24.6959 33.364C23.1843 38.5966 23.4168 43.364 24.9285 46.6198H18.1843V33.364H8.88196V46.7361H0.742432V13.364H8.88196V25.3408H18.1843V13.364H26.3238Z" fill="white"></path><path d="M42.9513 19.7595H32.7188V46.3874H42.9513V19.7595Z" fill="white"></path><path d="M43.9986 14.9922C50.6265 14.9922 53.6498 22.8992 50.6265 32.6666C49.2311 37.2015 46.673 41.3875 43.766 44.5271V41.8526C45.9753 39.1782 47.8358 35.9224 48.9986 32.3178C51.673 23.5968 49.1149 16.5038 43.0684 16.5038C41.3242 16.5038 39.58 17.0852 37.8358 18.1317C37.7195 18.1317 37.6032 18.248 37.487 18.248C37.1381 18.4806 36.7893 18.7131 36.5567 18.9457H35.1614C36.0916 18.248 36.9056 17.5503 37.8358 16.9689C39.8125 15.6899 42.0218 14.9922 43.9986 14.9922Z" fill="white"></path><path d="M38.5322 3.48017C39.4625 4.52669 39.8113 5.10808 40.1601 5.68948L41.788 4.87552C41.6718 4.52669 41.4392 4.17785 41.0904 3.82901C40.7415 3.36389 40.1601 2.7825 39.5787 2.31738C39.2299 2.89878 38.9973 3.01506 38.5322 3.48017Z" fill="white"></path><path d="M34.8118 5.45713C34.928 6.85248 35.1606 7.43387 35.3932 8.01527L37.3699 6.96876L36.4397 4.87573C35.742 5.22457 35.1606 5.34085 34.8118 5.45713Z" fill="white"></path><path d="M40.1605 11.2713C40.2768 11.2713 40.393 11.2713 40.393 11.2713C40.5093 10.9225 40.6256 9.87597 40.6256 9.06201C40.0442 9.17829 39.4628 9.29457 38.8814 9.64341H38.7651L39.5791 11.3876C39.8116 11.3876 40.0442 11.2713 40.1605 11.2713Z" fill="white"></path><path d="M34.8119 2.89906C34.6956 2.89906 34.6956 2.89906 34.5793 2.89906C34.5793 3.2479 34.5793 3.94557 34.6956 5.10836C35.1607 4.99209 35.6259 4.87581 36.3235 4.64325L35.3933 2.6665C35.277 2.78278 35.0445 2.78278 34.8119 2.89906Z" fill="white"></path><path d="M36.9044 10.4572C37.2532 10.1083 37.8346 9.75949 38.5323 9.41065L37.4858 7.31763L35.509 8.36414V8.48042C35.8579 9.17809 36.4393 9.99205 36.9044 10.4572Z" fill="white"></path><path d="M37.835 7.2013L38.7652 9.29432H38.8815C39.4629 9.06176 40.0443 8.8292 40.6257 8.71292C40.6257 7.78269 40.2768 6.85246 39.928 6.15479L37.835 7.2013Z" fill="white"></path><path d="M39.4635 11.5035L38.6496 9.75928C38.0682 10.1081 37.4868 10.457 37.1379 10.6895C37.7193 11.1546 38.5333 11.6197 38.8821 11.8523C38.9984 11.736 39.231 11.6197 39.4635 11.5035Z" fill="white"></path><path d="M32.3699 5.68977C32.0211 5.68977 31.7885 5.57349 31.556 5.57349V5.80604C31.4397 6.15488 31.4397 6.62 31.4397 7.08511C31.4397 8.01535 31.6723 8.94558 32.0211 9.75953L33.0676 9.29442C32.9513 9.06186 32.7188 8.48046 32.6025 7.66651C32.3699 7.08511 32.3699 6.38744 32.3699 5.68977Z" fill="white"></path><path d="M35.0436 8.13145C34.811 7.43377 34.5785 6.85238 34.4622 5.45703H34.3459C33.8808 5.57331 33.1831 5.57331 32.718 5.57331C32.718 6.27098 32.718 6.85238 32.8343 7.43378C32.9506 8.13145 33.1831 8.59657 33.2994 8.9454L35.0436 8.13145Z" fill="white"></path><path d="M42.6023 8.48048C43.0674 8.48048 43.6488 8.59676 43.765 8.71304C43.8813 8.13164 43.9976 7.55025 43.9976 6.96885C43.9976 6.03862 43.765 5.10839 43.4162 4.29443L42.2534 4.99211C42.2534 5.10839 42.3697 5.22467 42.3697 5.22467C42.3697 5.22467 42.6023 5.68978 42.7185 6.73629C42.8348 7.55025 42.8348 7.89908 42.6023 8.48048Z" fill="white"></path><path d="M36.5555 4.41068C37.1369 4.06184 37.7183 3.713 38.0671 3.48045C37.3694 2.66649 36.788 2.20138 36.5555 1.96882L36.4392 1.85254C36.2066 2.0851 35.9741 2.31766 35.6252 2.43393L36.5555 4.41068Z" fill="white"></path><path d="M36.6724 4.75947L37.6026 6.85249L39.6956 5.80598C39.3468 5.22459 39.1142 4.75947 38.184 3.71296L38.3003 3.59668C38.0677 3.94552 37.4863 4.41063 36.6724 4.75947Z" fill="white"></path><path d="M33.3 2.55016C33.6489 2.66644 34.2303 2.66644 34.8117 2.55016C35.6256 2.3176 35.8582 2.08505 36.3233 1.61993C36.5559 1.38737 36.7884 0.922255 36.9047 0.689697H36.7884C35.3931 0.922255 34.2303 1.61993 33.3 2.55016Z" fill="white"></path><path d="M37.4866 0.689697C37.7191 0.805976 38.068 0.922255 38.4168 1.15481C38.7656 1.27109 39.1145 1.50365 39.4633 1.85249C39.6959 1.50365 39.8122 1.27109 39.8122 1.15481C39.1145 0.922255 38.4168 0.805976 37.4866 0.689697Z" fill="white"></path><path d="M37.1375 0.922363C37.0212 1.15492 36.9049 1.38748 36.6724 1.62004C36.9049 1.8526 37.4863 2.31771 38.3003 3.24794L38.184 3.36422C38.7654 2.78283 38.8817 2.66655 39.3468 2.08515C38.9979 1.8526 38.6491 1.62004 38.3003 1.38748C37.7189 1.03864 37.37 0.922363 37.1375 0.922363Z" fill="white"></path><path d="M32.718 5.34092C33.1831 5.34092 33.9971 5.22464 34.3459 5.10836V5.22464C34.2296 3.94557 34.2296 3.13162 34.2296 2.78278C34.1134 2.78278 34.1134 2.78278 33.9971 2.78278C33.6483 2.78278 33.4157 2.78278 33.1831 2.6665C33.0669 2.89906 32.9506 3.2479 32.8343 3.82929C32.8343 4.41069 32.718 4.87581 32.718 5.34092Z" fill="white"></path><path d="M31.6724 5.22468C31.9049 5.22468 32.1375 5.34096 32.37 5.34096C32.37 4.87585 32.4863 4.29445 32.6026 3.94561C32.7189 3.4805 32.8352 3.24794 32.8352 3.01538L32.7189 3.24794C32.2538 3.82933 31.9049 4.52701 31.6724 5.22468Z" fill="white"></path><path d="M42.6029 8.8291V9.06166C42.4866 9.75933 42.1378 11.0384 42.0215 11.3872H42.1378C42.8354 10.6896 43.3006 9.87561 43.6494 8.94538C43.5331 9.06166 43.068 8.8291 42.6029 8.8291Z" fill="white"></path><path d="M35.1602 12.7827C35.2765 12.5501 35.3928 12.3176 35.6253 11.9687C35.0439 11.6199 34.6951 11.3873 34.1137 10.6896C33.6486 10.1083 33.416 9.75941 33.2998 9.52686L32.137 9.99197C32.8346 11.271 33.8811 12.2013 35.1602 12.7827Z" fill="white"></path><path d="M42.2539 8.8291C41.905 8.8291 41.3237 8.94538 40.9748 8.94538V8.8291C40.9748 9.64306 40.7423 10.6896 40.626 11.1547C40.9748 11.1547 41.3237 11.1547 41.5562 11.271C41.6725 10.8058 42.0213 9.64306 42.0213 8.94538L42.2539 8.8291Z" fill="white"></path><path d="M37.6031 13.364C37.6031 13.364 37.6031 13.2477 37.7194 13.1314H37.6031C37.138 12.8988 36.4403 12.55 35.8589 12.2012C35.6264 12.55 35.5101 12.7826 35.3938 13.0151C36.0915 13.2477 36.9054 13.364 37.6031 13.364Z" fill="white"></path><path d="M40.2769 1.15479C40.1606 1.38734 40.0443 1.6199 39.8118 1.96874C40.3932 2.43385 40.9746 3.01525 41.4397 3.48037C41.7885 3.8292 42.0211 4.29432 42.1373 4.64316L43.3001 4.06176C42.6025 2.78269 41.556 1.73618 40.2769 1.15479Z" fill="white"></path><path d="M38.533 12.2012C38.3004 11.8524 37.4865 11.3872 36.9051 10.9221H36.7888C36.44 11.271 36.3237 11.3872 35.9749 11.7361C36.5562 12.0849 37.4865 12.55 37.8353 12.7826C38.0679 12.6663 38.3004 12.3175 38.533 12.2012Z" fill="white"></path><path d="M35.8577 12.2015C35.8577 12.0852 35.9739 12.0852 35.8577 12.2015V12.2015Z" fill="white"></path><path d="M42.3694 6.73631C42.2531 6.03863 42.1368 5.57351 42.0206 5.45724V5.34096C42.0206 5.34096 42.0206 5.34096 42.0206 5.22468C42.0206 5.22468 42.0206 5.1084 41.9043 5.1084L40.2764 5.92235L40.3926 6.15491C40.7415 6.85258 40.974 7.8991 41.0903 8.71305C41.4392 8.59677 42.0206 8.48049 42.3694 8.48049C42.4857 7.8991 42.4857 7.55026 42.3694 6.73631Z" fill="white"></path><path d="M40.2769 11.6199C39.463 11.8525 39.2304 11.9688 38.7653 12.4339C38.4165 12.6665 38.1839 13.1316 38.0676 13.3641C39.5793 13.2478 40.8583 12.6665 41.9048 11.7362C41.6723 11.6199 40.9746 11.5037 40.2769 11.6199Z" fill="white"></path><path d="M35.7421 11.62C36.2072 11.1549 36.3235 11.0386 36.6723 10.6898L36.7886 10.8061C36.2072 10.2247 35.5095 9.29442 35.1607 8.48047L33.4165 9.29442C33.5328 9.52698 33.7653 9.87582 34.2305 10.3409C34.8119 11.0386 35.1607 11.2712 35.7421 11.62Z" fill="white"></path></g><defs><clipPath id="clip0_751_3976"><rect width="185.465" height="50" fill="white" transform="translate(0.742432 0.34082)"></rect></clipPath></defs></svg>