<svg xmlns="http://www.w3.org/2000/svg" width="285" height="302" viewBox="0 0 285 302" fill="none"><path d="M249.906 118.975C263.403 149.968 264.903 185.961 251.405 219.954C240.908 245.448 223.411 265.944 201.916 279.941C167.423 302.436 122.933 307.935 81.9412 291.439C30.9519 270.443 0.458386 220.454 1.45817 168.464C1.95807 152.968 4.95744 137.471 10.9562 122.474C12.9557 117.475 15.4552 112.976 17.9547 108.477C26.9528 91.9806 39.4501 78.4835 53.9471 67.4858C78.4419 49.4896 108.935 39.9916 139.929 41.9912C151.926 42.491 163.924 44.9905 175.421 49.4896C177.421 49.9895 178.921 50.4894 180.42 51.4892C184.42 52.9888 187.919 54.9884 191.918 56.988" stroke="black" stroke-width="2" stroke-miterlimit="10" stroke-linecap="round" stroke-linejoin="round"></path><path d="M17.9548 107.978C17.9548 107.978 54.947 97.9802 67.9442 118.476C80.9415 138.972 95.9383 123.475 97.9379 133.473C99.9375 143.471 110.435 191.46 73.4431 171.465C36.9508 151.469 48.9483 209.457 77.9421 205.458C106.436 200.958 106.936 196.459 128.931 210.956C139.429 217.955 152.926 201.458 160.925 213.956C183.42 248.448 146.428 233.452 148.927 268.444C149.927 285.941 90.4395 282.441 81.4414 254.447C71.9434 224.454 32.4517 229.952 31.4519 209.957C28.9525 174.464 1.45825 168.465 1.45825 168.465" stroke="black" stroke-width="2" stroke-miterlimit="10" stroke-linecap="round" stroke-linejoin="round"></path><path d="M174.922 48.9909C174.922 48.9909 170.423 71.4862 162.924 85.9831C148.927 113.477 174.422 105.479 168.423 123.975C161.924 143.971 155.426 139.972 165.424 153.969C176.421 169.465 206.415 126.974 222.911 155.968C231.91 171.965 194.417 178.464 207.415 212.456C214.913 232.452 184.919 245.449 201.916 279.942" stroke="black" stroke-width="2" stroke-miterlimit="10" stroke-linecap="round" stroke-linejoin="round"></path><path d="M53.4473 66.9867C53.4473 66.9867 76.9423 91.4815 98.9377 87.9822C120.933 84.483 100.937 68.9863 120.933 63.9873C139.429 59.4883 139.429 41.4921 139.429 41.4921" stroke="black" stroke-width="2" stroke-miterlimit="10" stroke-linecap="round" stroke-linejoin="round"></path><path d="M283.899 47.4902C283.899 65.4864 260.904 102.978 246.906 123.474C242.407 130.473 231.91 130.473 226.911 123.474C213.414 102.978 189.918 65.4864 189.918 47.4902C190.418 21.9956 211.414 1 236.909 1C262.403 1 283.899 21.9956 283.899 47.4902Z" fill="#EC2127" stroke="#EC2127" stroke-width="2" stroke-miterlimit="10" stroke-linecap="round" stroke-linejoin="round"></path><path d="M236.908 68.9852C249.608 68.9852 259.904 58.6899 259.904 45.99C259.904 33.2902 249.608 22.9949 236.908 22.9949C224.209 22.9949 213.913 33.2902 213.913 45.99C213.913 58.6899 224.209 68.9852 236.908 68.9852Z" fill="white" stroke="#EC2127" stroke-width="2" stroke-miterlimit="10" stroke-linecap="round" stroke-linejoin="round"></path></svg>