<svg xmlns="http://www.w3.org/2000/svg" width="286" height="301" viewBox="0 0 286 301" fill="none"><path d="M65.5806 64.6859V45.8404C65.5806 20.3735 85.9541 0 111.421 0H164.901C190.368 0 210.742 20.3735 210.742 45.8404V64.6859" fill="#EC2127"></path><path d="M90.5383 64.6864V45.8409C90.5383 33.6168 100.725 23.4301 112.949 23.4301H162.355C174.579 23.4301 184.766 33.6168 184.766 45.8409V64.6864" fill="white"></path><path d="M10.0626 130.391V242.445C10.0626 253.651 18.7214 262.309 29.9268 262.309H176.107" stroke="black" stroke-width="2" stroke-miterlimit="10" stroke-linecap="round" stroke-linejoin="round"></path><path d="M266.26 196.096V130.391" stroke="black" stroke-width="2" stroke-miterlimit="10" stroke-linecap="round" stroke-linejoin="round"></path><path d="M167.957 173.684H195.971C226.531 173.684 253.017 155.857 265.75 130.39C270.844 120.203 273.9 107.979 273.9 95.7553V84.5498C273.9 73.3444 265.241 64.6857 254.036 64.6857H21.7775C10.5721 64.6857 1.91333 73.3444 1.91333 84.5498V95.7553C1.91333 108.489 4.96936 120.203 10.0627 130.39C22.7962 155.857 49.2818 173.684 79.842 173.684H107.856" stroke="black" stroke-width="2" stroke-miterlimit="10" stroke-linecap="round" stroke-linejoin="round"></path><path d="M157.261 188.455H119.061C112.949 188.455 108.365 183.362 108.365 177.759V170.119C108.365 164.007 113.458 159.423 119.061 159.423H157.261C163.373 159.423 167.958 164.516 167.958 170.119V177.759C167.958 183.362 163.373 188.455 157.261 188.455Z" stroke="black" stroke-width="2" stroke-miterlimit="10" stroke-linecap="round" stroke-linejoin="round"></path><path d="M284.087 196.095H247.924V300H284.087V196.095Z" stroke="black" stroke-width="2" stroke-miterlimit="10" stroke-linecap="round" stroke-linejoin="round"></path><path d="M247.923 213.922H211.76V300H247.923V213.922Z" stroke="black" stroke-width="2" stroke-miterlimit="10" stroke-linecap="round" stroke-linejoin="round"></path><path d="M211.76 238.879H175.597V300H211.76V238.879Z" stroke="black" stroke-width="2" stroke-miterlimit="10" stroke-linecap="round" stroke-linejoin="round"></path></svg>