<svg xmlns="http://www.w3.org/2000/svg" width="303" height="302" viewBox="0 0 303 302" fill="none"><path d="M97.0142 120.103L83.0607 106.149L106.483 82.7273L120.436 96.6808C124.921 94.1891 129.905 92.1958 134.888 90.7007V70.7672H167.778V90.7007C172.762 92.1958 177.745 94.1891 182.23 96.6808L196.184 82.7273L219.605 106.149L205.652 120.103C208.144 124.588 210.137 129.571 211.632 134.555H231.566V167.445H211.632C210.137 172.428 208.144 177.412 205.652 181.897L219.605 195.85L196.184 219.272L182.23 205.319C177.745 207.81 172.762 209.804 167.778 211.299V231.232H134.888V211.299C129.905 209.804 124.921 207.81 120.436 205.319L106.483 219.272L83.0607 195.85L97.0142 181.897C94.5225 177.412 92.5291 172.428 91.0341 167.445H71.1006V134.555H91.0341C92.5291 129.571 94.5225 124.588 97.0142 120.103Z" stroke="black" stroke-width="2" stroke-miterlimit="10" stroke-linecap="round" stroke-linejoin="round"></path><path d="M151.333 188.874C172.25 188.874 189.207 171.917 189.207 151C189.207 130.083 172.25 113.126 151.333 113.126C130.416 113.126 113.459 130.083 113.459 151C113.459 171.917 130.416 188.874 151.333 188.874Z" fill="#EC2127"></path><path d="M151.334 71.2657V32.8937" stroke="black" stroke-width="2" stroke-miterlimit="10" stroke-linecap="round" stroke-linejoin="round"></path><path d="M151.333 32.8937C160.14 32.8937 167.28 25.754 167.28 16.9468C167.28 8.13964 160.14 1 151.333 1C142.526 1 135.386 8.13964 135.386 16.9468C135.386 25.754 142.526 32.8937 151.333 32.8937Z" stroke="black" stroke-width="2" stroke-miterlimit="10" stroke-linecap="round" stroke-linejoin="round"></path><path d="M151.334 230.734V269.106" stroke="black" stroke-width="2" stroke-miterlimit="10" stroke-linecap="round" stroke-linejoin="round"></path><path d="M151.333 300.999C160.14 300.999 167.28 293.86 167.28 285.053C167.28 276.245 160.14 269.106 151.333 269.106C142.526 269.106 135.386 276.245 135.386 285.053C135.386 293.86 142.526 300.999 151.333 300.999Z" stroke="black" stroke-width="2" stroke-miterlimit="10" stroke-linecap="round" stroke-linejoin="round"></path><path d="M231.068 151H269.44" stroke="black" stroke-width="2" stroke-miterlimit="10" stroke-linecap="round" stroke-linejoin="round"></path><path d="M285.387 166.947C294.194 166.947 301.333 159.807 301.333 151C301.333 142.193 294.194 135.053 285.387 135.053C276.579 135.053 269.44 142.193 269.44 151C269.44 159.807 276.579 166.947 285.387 166.947Z" stroke="black" stroke-width="2" stroke-miterlimit="10" stroke-linecap="round" stroke-linejoin="round"></path><path d="M71.5991 151H33.2271" stroke="black" stroke-width="2" stroke-miterlimit="10" stroke-linecap="round" stroke-linejoin="round"></path><path d="M17.2802 166.947C26.0874 166.947 33.227 159.807 33.227 151C33.227 142.193 26.0874 135.053 17.2802 135.053C8.47301 135.053 1.33337 142.193 1.33337 151C1.33337 159.807 8.47301 166.947 17.2802 166.947Z" stroke="black" stroke-width="2" stroke-miterlimit="10" stroke-linecap="round" stroke-linejoin="round"></path><path d="M207.645 94.6877L235.054 67.2791" stroke="black" stroke-width="2" stroke-miterlimit="10" stroke-linecap="round" stroke-linejoin="round"></path><path d="M246.017 72.2618C254.824 72.2618 261.964 65.1222 261.964 56.315C261.964 47.5078 254.824 40.3682 246.017 40.3682C237.21 40.3682 230.07 47.5078 230.07 56.315C230.07 65.1222 237.21 72.2618 246.017 72.2618Z" stroke="black" stroke-width="2" stroke-miterlimit="10" stroke-linecap="round" stroke-linejoin="round"></path><path d="M95.0212 207.311L67.6125 234.72" stroke="black" stroke-width="2" stroke-miterlimit="10" stroke-linecap="round" stroke-linejoin="round"></path><path d="M56.6484 261.631C65.4556 261.631 72.5952 254.491 72.5952 245.684C72.5952 236.877 65.4556 229.737 56.6484 229.737C47.8412 229.737 40.7015 236.877 40.7015 245.684C40.7015 254.491 47.8412 261.631 56.6484 261.631Z" stroke="black" stroke-width="2" stroke-miterlimit="10" stroke-linecap="round" stroke-linejoin="round"></path><path d="M207.645 207.311L235.054 234.72" stroke="black" stroke-width="2" stroke-miterlimit="10" stroke-linecap="round" stroke-linejoin="round"></path><path d="M246.017 261.631C254.824 261.631 261.964 254.491 261.964 245.684C261.964 236.877 254.824 229.737 246.017 229.737C237.21 229.737 230.07 236.877 230.07 245.684C230.07 254.491 237.21 261.631 246.017 261.631Z" stroke="black" stroke-width="2" stroke-miterlimit="10" stroke-linecap="round" stroke-linejoin="round"></path><path d="M95.0212 94.6877L67.6125 67.2791" stroke="black" stroke-width="2" stroke-miterlimit="10" stroke-linecap="round" stroke-linejoin="round"></path><path d="M56.6484 72.2618C65.4556 72.2618 72.5952 65.1222 72.5952 56.315C72.5952 47.5078 65.4556 40.3682 56.6484 40.3682C47.8412 40.3682 40.7015 47.5078 40.7015 56.315C40.7015 65.1222 47.8412 72.2618 56.6484 72.2618Z" stroke="black" stroke-width="2" stroke-miterlimit="10" stroke-linecap="round" stroke-linejoin="round"></path><path d="M132.894 152.495L146.35 165.452L169.771 142.03" stroke="white" stroke-width="2" stroke-miterlimit="10" stroke-linecap="round" stroke-linejoin="round"></path></svg>